<svg height="512pt" viewBox="0 0 512 512" width="512pt" xmlns="http://www.w3.org/2000/svg"><path d="m512 256c0 141.386719-114.613281 256-256 256s-256-114.613281-256-256 114.613281-256 256-256 256 114.613281 256 256zm0 0" fill="#554fb2"/><path d="m511.882812 263.449219c-40.925781-40.910157-86.554687-86.621094-86.554687-86.808594-7.941406 0-15.753906.5625-23.40625 1.628906-.046875-.109375-53.960937-53.921875-54.132813-54.328125-17.214843 7.132813-32.625 16.796875-45.988281 28.382813-.269531-.273438-45.464843-45.488281-45.800781-45.820313-16.226562 16.222656-28.453125 34.949219-36.703125 54.945313-15.273437-15.316407-33.738281-27.9375-54.9375-36.71875-8.78125 21.199219-12.910156 43.179687-12.878906 64.8125-19.976563-8.308594-41.863281-12.902344-64.808594-12.902344 0 46.9375 19.199219 89.46875 50.15625 120.171875.332031.332031 49.101563 49.101562 49.152344 49.15625h-59.625c-21.824219 0-39.683594 17.859375-39.683594 39.683594 0 0 78.753906 78.582031 122.132813 121.988281 15.296874 2.851563 31.070312 4.359375 47.195312 4.359375 138.894531 0 251.941406-110.613281 255.882812-248.550781zm0 0" fill="#2b4478"/><path d="m347.789062 123.941406c-86.257812 35.730469-127.367187 134.976563-91.636718 221.238282 86.257812-35.730469 127.371094-134.976563 91.636718-221.238282zm0 0" fill="#01b1bc"/><path d="m164.359375 124.730469c-35.730469 86.261719 5.378906 185.507812 91.640625 221.238281 35.730469-86.261719-5.378906-185.507812-91.640625-221.238281zm0 0" fill="#3ac7cf"/><path d="m385.640625 345.96875h-69.78125v39.683594h109.46875c0-21.824219-17.859375-39.683594-39.6875-39.683594zm0 0" fill="#1d7258"/><path d="m126.359375 345.96875h69.78125v39.683594h-109.46875c0-21.824219 17.859375-39.683594 39.6875-39.683594zm0 0" fill="#1d7258"/><path d="m86.671875 176.640625c0 93.367187 75.960937 169.328125 169.328125 169.328125 0-93.367188-75.960938-169.328125-169.328125-169.328125zm0 0" fill="#74dce2"/><path d="m425.328125 176.640625c-93.367187 0-169.328125 75.960937-169.328125 169.328125 93.367188 0 169.328125-75.960938 169.328125-169.328125zm0 0" fill="#3ac7cf"/><path d="m256 106.503906-39.6875 119.730469 39.6875 119.734375c66.019531-66.023438 66.019531-173.445312 0-239.464844zm0 0" fill="#74dce2"/><path d="m256 345.96875v-239.464844c-66.019531 66.019532-66.019531 173.441406 0 239.464844zm0 0" fill="#adf2f5"/><path d="m196.140625 345.96875c-32.742187 0-59.53125 26.789062-59.53125 59.527344h59.863281c32.738282 0 59.527344-26.785156 59.527344-59.527344zm0 0" fill="#54a74d"/><path d="m315.859375 345.96875h-59.859375c0 32.742188 26.789062 59.527344 59.527344 59.527344h59.863281c0-32.738282-26.789063-59.527344-59.53125-59.527344zm0 0" fill="#388d52"/></svg>