<?xml version="1.0" encoding="iso-8859-1"?>
<!-- Generator: Adobe Illustrator 19.0.0, SVG Export Plug-In . SVG Version: 6.00 Build 0)  -->
<svg version="1.1" id="Capa_1" xmlns="http://www.w3.org/2000/svg" xmlns:xlink="http://www.w3.org/1999/xlink" x="0px" y="0px"
	 viewBox="0 0 512 512" style="enable-background:new 0 0 512 512;" xml:space="preserve">
<circle style="fill:#FF328E;" cx="256" cy="256" r="256"/>
<path style="fill:#C50A5B;" d="M512,256c0-4.275-0.11-8.525-0.317-12.749l-83.037-83.037
	c-22.162-23.899-53.826-38.862-88.989-38.862c-32.43,0-61.888,12.723-83.657,33.448c-21.769-20.726-51.227-33.448-83.657-33.448
	C105.327,121.352,51,175.679,51,242.695c0,35.162,14.964,66.822,38.861,88.984c0.205,0.22,0.405,0.445,0.611,0.664l-6.431,31.695
	l146.723,146.723C239.067,511.574,247.484,512,256,512C397.385,512,512,397.385,512,256z"/>
<path style="fill:#00DFC1;" d="M339.657,121.352c67.016,0,121.343,54.327,121.343,121.343c0,35.471-15.222,67.384-39.487,89.572
	l6.446,31.772l-40.552-9.763c-14.656,6.28-30.796,9.763-47.75,9.763c-67.016,0-121.343-54.327-121.343-121.343
	S272.641,121.352,339.657,121.352z"/>
<path style="fill:#FFFFFF;" d="M172.343,121.352C105.327,121.352,51,175.679,51,242.695c0,35.471,15.222,67.384,39.487,89.572
	l-6.446,31.772l40.552-9.763c14.656,6.28,30.796,9.763,47.75,9.763c67.016,0,121.343-54.327,121.343-121.343
	S239.359,121.352,172.343,121.352z"/>
<path style="fill:#FFF5CB;" d="M293.686,242.695c0-34.586-14.47-65.792-37.686-87.895c-23.216,22.103-37.686,53.309-37.686,87.895
	s14.47,65.792,37.686,87.895C279.216,308.487,293.686,277.281,293.686,242.695z"/>
<path style="fill:#FFE670;" d="M293.69,242.69c0,34.59-14.47,65.8-37.69,87.9V154.8C279.22,176.9,293.69,208.11,293.69,242.69z"/>
<g>
	<circle style="fill:#FFB84D;" cx="115.3" cy="242.69" r="16.3"/>
	<circle style="fill:#FFB84D;" cx="177.84" cy="242.69" r="16.3"/>
</g>
<g>
	<circle style="fill:#008878;" cx="334.16" cy="242.69" r="16.3"/>
	<circle style="fill:#008878;" cx="396.7" cy="242.69" r="16.3"/>
</g>
<g>
</g>
<g>
</g>
<g>
</g>
<g>
</g>
<g>
</g>
<g>
</g>
<g>
</g>
<g>
</g>
<g>
</g>
<g>
</g>
<g>
</g>
<g>
</g>
<g>
</g>
<g>
</g>
<g>
</g>
</svg>
