<?xml version="1.0" encoding="iso-8859-1"?>
<!-- Generator: Adobe Illustrator 21.0.0, SVG Export Plug-In . SVG Version: 6.00 Build 0)  -->
<svg xmlns="http://www.w3.org/2000/svg" xmlns:xlink="http://www.w3.org/1999/xlink" version="1.1" id="Capa_1" x="0px" y="0px" viewBox="0 0 512 512" style="enable-background:new 0 0 512 512;" xml:space="preserve" width="512" height="512">
<g>
	<g>
		<g>
			<g>
				<circle style="fill:#A3D4FF;" cx="256" cy="256" r="256"/>
			</g>
		</g>
	</g>
	<path style="fill:#65B1FC;" d="M512,256c0-5.342-0.183-10.641-0.506-15.901l-141.65-141.65L77,220.471L190.918,334.39l-1.883,2.745   l27.975,27.975l-13.905,98.019l48.82,48.82C253.283,511.97,254.638,512,256,512C397.385,512,512,397.385,512,256z"/>
	<g>
		<path style="fill:#E9EDF5;" d="M424.193,221.654h-13.889c-8.809-21.276-29.765-36.247-54.225-36.247    c-25.381,0-46.994,16.118-55.173,38.674c-17.743,6.066-30.507,22.873-30.507,42.671l0,0c0,24.907,20.191,45.098,45.098,45.098    h108.697c24.907,0,45.098-20.191,45.098-45.098l0,0C469.29,241.845,449.099,221.654,424.193,221.654z"/>
	</g>
	<g>
		<g>
			<polygon style="fill:#E9EDF5;" points="301.824,415.667 282.176,415.667 302.176,327.667 321.824,327.667    "/>
		</g>
		<g>
			<polygon style="fill:#FFFFFF;" points="229.824,415.667 210.176,415.667 190.176,327.667 209.824,327.667    "/>
		</g>
	</g>
	<g>
		<rect x="203.105" y="401.631" style="fill:#915041;" width="105.79" height="61.497"/>
	</g>
	<g>
		<rect x="255.595" y="401.631" style="fill:#784132;" width="53.3" height="61.497"/>
	</g>
	<g>
		<path style="fill:#FFD400;" d="M392.236,163.181C392.236,87.939,331.241,60,256,60S119.764,87.939,119.764,163.181    c0,42.18,39.17,116.651,69.272,173.954h133.929C353.066,279.832,392.236,205.361,392.236,163.181z"/>
	</g>
	<g>
		<path style="fill:#FFA300;" d="M392.236,163.181C392.236,87.939,331.241,60,256,60c-0.135,0-0.27,0.002-0.405,0.002v277.132    h67.369C353.066,279.832,392.236,205.361,392.236,163.181z"/>
	</g>
	<g>
		<path style="fill:#FFA300;" d="M321.824,163.181C321.824,87.939,292.353,60,256,60s-65.824,27.939-65.824,103.181    c0,42.18,18.925,116.651,33.469,173.954h64.709C302.898,279.832,321.824,205.361,321.824,163.181z"/>
	</g>
	<g>
		<path style="fill:#FE8205;" d="M321.824,163.181C321.824,87.939,292.353,60,256,60c-0.135,0-0.27,0.004-0.405,0.005v277.129    h32.759C302.898,279.832,321.824,205.361,321.824,163.181z"/>
	</g>
	<g>
		<path style="fill:#FFFFFF;" d="M184.597,159h-10.801c-6.85-16.545-23.147-28.188-42.168-28.188    c-19.737,0-36.544,12.534-42.904,30.075C74.926,165.604,65,178.674,65,194.07l0,0c0,19.369,15.701,35.07,35.07,35.07h84.527    c19.369,0,35.07-15.701,35.07-35.07l0,0C219.667,174.701,203.965,159,184.597,159z"/>
	</g>
</g>















</svg>
