<svg id="Capa_1" enable-background="new 0 0 512 512" height="512" viewBox="0 0 512 512" width="512" xmlns="http://www.w3.org/2000/svg"><g><g><g><g><g><g><g><g><g><circle cx="256" cy="256" fill="#1dd882" r="256"/></g></g></g></g></g></g></g></g><path d="m512 256c0-2.356-.032-4.704-.095-7.044l-98.68-109.661-48.4-44.415-38.24 21.637-55.585-55.586-30 48.147 85.857 85.857-3.769 2.63-23.969-23.969-8.388 23.858-117.575-117.574 19.862 44.128-21.769 12.568 24.977 24.977v46.168l1.222 24.75-63.039-63.039-56.697 1.907 83.291 83.291-122.503-3.156 126.553 126.553v8.405l46.478 46.478 82.959 76.216c123.124-18.566 217.51-124.824 217.51-253.126z" fill="#06b26b"/><g><path d="m210.364 339.329-54.456 31.44-32.617-56.494c-9.086-15.738-3.694-35.861 12.044-44.947l25.961-14.989z" fill="#faa68e"/></g><g><g><g><path d="m62.257 265.333v-27.717l51.249-29.895 17.71 43.753-17.71 43.754z" fill="#ffe89c"/></g></g><g><g><path d="m131.216 251.474-17.71 43.754-51.249-29.895v-13.859h68.946z" fill="#fad17f"/></g></g><g><g><path d="m38.5 251.474 26.044-15.192v30.384z" fill="#636978"/></g></g><g><g><path d="m64.544 251.474v15.192l-26.044-15.192z" fill="#414952"/></g></g><g><g><path d="m113.506 295.228v-23.995l9-19.969-9-19.404v-24.139h321.494v24.259l-10 19.295 10 19.619v24.334z" fill="#ff6c52"/></g></g><g><g><path d="m113.506 295.228v-25.574l321.494.327v25.247z" fill="#ff432e"/></g></g><g><g><path d="m113.506 231.761h321.494v39.426h-321.494z" fill="#fa0"/></g></g><g><g><path d="m113.506 251.474h321.494v19.713h-321.494z" fill="#ff9500"/></g></g></g><g><path d="m332.029 177.911c-11.43 0-21.139 7.364-24.644 17.605v-2.891c0-14.382-11.659-26.042-26.042-26.042-11.43 0-21.139 7.364-24.644 17.605v-.808c0-14.383-11.659-26.042-26.042-26.042-11.6 0-21.428 7.584-24.797 18.065-1.411-13.051-12.463-23.212-25.889-23.212-14.382 0-26.042 11.659-26.042 26.042v182.019c0 13.993 7.9 26.141 19.482 32.228v105.904c25.912 8.828 53.691 13.616 82.589 13.616s56.677-4.788 82.588-13.615v-105.904c11.583-6.087 19.483-18.235 19.483-32.228v-156.301c0-14.382-11.66-26.041-26.042-26.041z" fill="#ffcdbe"/></g><g><path d="m241 60.931h30v48.147h-30z" fill="#fff"/></g><g><path d="m256 60.931h15v48.147h-15z" fill="#e9edf5"/></g><g><path d="m375.802 149.322h48.147v30h-48.147z" fill="#e9edf5" transform="matrix(.866 -.5 .5 .866 -28.588 221.951)"/></g><g><path d="m91.06 146.313h30v48.147h-30z" fill="#fff" transform="matrix(.5 -.866 .866 .5 -94.529 177.044)"/></g><g><g><path d="m315.724 93.228h48.147v30h-48.147z" fill="#e9edf5" transform="matrix(.5 -.866 .866 .5 76.169 348.386)"/></g><g><path d="m157.203 84.154h30v48.147h-30z" fill="#fff" transform="matrix(.866 -.5 .5 .866 -31.043 100.601)"/></g></g><g><path d="m256.497 512c28.719-.055 56.328-4.839 82.091-13.614v-105.905c11.583-6.087 19.483-18.235 19.483-32.228v-156.301c0-14.382-11.659-26.042-26.042-26.042-11.43 0-21.139 7.364-24.644 17.605v-2.891c0-14.382-11.659-26.042-26.042-26.042-11.43 0-21.139 7.364-24.644 17.605z" fill="#ffbeaa"/></g></g></svg>